<?xml version="1.0" encoding="UTF-8"?>
<svg xmlns="http://www.w3.org/2000/svg" version="1.1" width="200" height="200" viewBox="0 0 200 200"><g transform="scale(9.524)"><g transform="translate(0,0)"><path fill-rule="evenodd" d="M8 0L8 2L10 2L10 3L9 3L9 4L8 4L8 9L7 9L7 8L5 8L5 9L7 9L7 10L6 10L6 11L5 11L5 10L4 10L4 9L3 9L3 8L0 8L0 9L2 9L2 11L1 11L1 10L0 10L0 11L1 11L1 12L2 12L2 13L4 13L4 12L6 12L6 13L8 13L8 14L9 14L9 15L8 15L8 16L9 16L9 18L8 18L8 21L9 21L9 18L10 18L10 17L11 17L11 18L12 18L12 21L14 21L14 19L15 19L15 16L14 16L14 15L15 15L15 14L13 14L13 13L14 13L14 12L13 12L13 13L12 13L12 11L15 11L15 13L16 13L16 15L17 15L17 16L18 16L18 15L19 15L19 18L18 18L18 17L16 17L16 19L17 19L17 21L18 21L18 19L21 19L21 18L20 18L20 17L21 17L21 16L20 16L20 15L21 15L21 14L20 14L20 15L19 15L19 14L18 14L18 10L17 10L17 8L13 8L13 6L12 6L12 4L13 4L13 2L12 2L12 0ZM10 1L10 2L11 2L11 1ZM11 3L11 4L12 4L12 3ZM9 5L9 8L11 8L11 7L12 7L12 6L11 6L11 7L10 7L10 5ZM12 8L12 9L11 9L11 11L12 11L12 9L13 9L13 10L14 10L14 9L13 9L13 8ZM19 8L19 9L20 9L20 11L19 11L19 13L21 13L21 12L20 12L20 11L21 11L21 8ZM15 9L15 11L16 11L16 12L17 12L17 11L16 11L16 9ZM7 10L7 11L6 11L6 12L9 12L9 13L10 13L10 15L9 15L9 16L11 16L11 17L12 17L12 16L13 16L13 15L12 15L12 13L11 13L11 12L10 12L10 10L9 10L9 11L8 11L8 10ZM2 11L2 12L4 12L4 11ZM13 17L13 19L14 19L14 17ZM17 18L17 19L18 19L18 18ZM10 19L10 21L11 21L11 19ZM20 20L20 21L21 21L21 20ZM0 0L0 7L7 7L7 0ZM1 1L1 6L6 6L6 1ZM2 2L2 5L5 5L5 2ZM14 0L14 7L21 7L21 0ZM15 1L15 6L20 6L20 1ZM16 2L16 5L19 5L19 2ZM0 14L0 21L7 21L7 14ZM1 15L1 20L6 20L6 15ZM2 16L2 19L5 19L5 16Z" fill="#01017a"/></g></g></svg>
